<?xml version="1.0" encoding="UTF-8"?>
<svg xmlns="http://www.w3.org/2000/svg" xmlns:xlink="http://www.w3.org/1999/xlink" width="12pt" height="12pt" viewBox="0 0 21 21" version="1.1">
<g id="surface1">
<path style=" stroke:none;fill-rule:nonzero;fill:rgb(0%,50.196078%,0%);fill-opacity:1;" d="M 4.546875 1.355469 L 4.546875 0 L 5.191406 0 L 5.191406 1.273438 C 5.574219 1.238281 5.886719 1.21875 6.136719 1.21875 C 6.355469 1.21875 6.695312 1.238281 7.152344 1.273438 L 7.152344 0 L 7.796875 0 L 7.796875 1.328125 C 9.167969 1.53125 10.191406 1.96875 10.863281 2.636719 C 11.535156 3.304688 11.871094 4.023438 11.871094 4.789062 C 11.871094 5.277344 11.726562 5.660156 11.4375 5.9375 C 11.144531 6.214844 10.816406 6.351562 10.457031 6.351562 C 10.09375 6.351562 9.785156 6.222656 9.527344 5.957031 C 9.269531 5.695312 9.140625 5.351562 9.140625 4.925781 C 9.140625 4.316406 9.429688 3.890625 10.011719 3.640625 C 10.289062 3.511719 10.425781 3.398438 10.425781 3.308594 C 10.425781 3.160156 10.207031 2.933594 9.769531 2.628906 C 9.332031 2.324219 8.671875 2.109375 7.796875 1.980469 L 7.796875 8.816406 C 10.628906 9.960938 12.042969 11.699219 12.042969 14.035156 C 12.042969 15.085938 11.691406 16.082031 10.984375 17.023438 C 10.28125 17.964844 9.214844 18.628906 7.796875 19.015625 L 7.796875 21.992188 L 7.152344 21.992188 L 7.152344 19.183594 C 6.425781 19.300781 5.773438 19.34375 5.191406 19.308594 L 5.191406 21.992188 L 4.546875 21.992188 L 4.546875 19.238281 C 2.964844 18.96875 1.8125 18.425781 1.085938 17.605469 C 0.363281 16.78125 0 15.9375 0 15.070312 C 0 14.628906 0.148438 14.21875 0.445312 13.847656 C 0.738281 13.472656 1.121094 13.285156 1.585938 13.285156 C 1.949219 13.285156 2.285156 13.421875 2.589844 13.695312 C 2.894531 13.964844 3.046875 14.316406 3.046875 14.738281 C 3.046875 15.164062 2.910156 15.503906 2.640625 15.761719 C 2.367188 16.023438 2.054688 16.152344 1.703125 16.152344 C 1.683594 16.152344 1.613281 16.136719 1.496094 16.109375 C 1.375 16.082031 1.304688 16.066406 1.289062 16.066406 C 1.171875 16.066406 1.117188 16.140625 1.117188 16.289062 C 1.117188 16.558594 1.410156 16.957031 2.003906 17.492188 C 2.59375 18.027344 3.441406 18.375 4.546875 18.53125 L 4.546875 10.394531 C 1.867188 9.425781 0.527344 7.890625 0.527344 5.785156 C 0.527344 3.535156 1.867188 2.058594 4.546875 1.355469 Z M 5.191406 1.980469 L 5.191406 7.820312 C 5.574219 7.984375 6.226562 8.222656 7.152344 8.523438 L 7.152344 1.953125 L 6.207031 1.894531 C 6.066406 1.894531 5.871094 1.910156 5.621094 1.9375 C 5.375 1.964844 5.230469 1.980469 5.191406 1.980469 Z M 4.546875 7.515625 L 4.546875 2.117188 C 2.890625 2.632812 2.058594 3.542969 2.058594 4.84375 C 2.058594 5.960938 2.890625 6.851562 4.546875 7.515625 Z M 7.152344 18.476562 L 7.152344 11.554688 L 5.191406 10.738281 L 5.191406 18.585938 C 5.382812 18.605469 5.550781 18.613281 5.691406 18.613281 C 5.941406 18.613281 6.425781 18.570312 7.152344 18.476562 Z M 7.796875 11.820312 L 7.796875 18.28125 C 9.625 17.683594 10.542969 16.613281 10.542969 15.070312 C 10.542969 13.632812 9.625 12.546875 7.796875 11.820312 Z M 7.796875 11.820312 "/>
</g>
</svg>
